<?xml version="1.0" encoding="utf-8"?>
<!-- Generator: Adobe Illustrator 16.0.0, SVG Export Plug-In . SVG Version: 6.00 Build 0)  -->
<!DOCTYPE svg PUBLIC "-//W3C//DTD SVG 1.1//EN" "http://www.w3.org/Graphics/SVG/1.1/DTD/svg11.dtd">
<svg version="1.1" id="Layer_1" xmlns="http://www.w3.org/2000/svg" xmlns:xlink="http://www.w3.org/1999/xlink" x="0px" y="0px"
	 width="85.465px" height="38.023px" viewBox="0 0 85.465 38.023" enable-background="new 0 0 85.465 38.023" xml:space="preserve">
<g>
	<path fill="#808285" d="M14.636,31.445c-4.958,0-9.187-4.343-9.187-10.686c0-6.15,4.267-10.724,9.417-10.724
		c2.076,0,3.613,0.691,4.843,2.152c0.692-1.229,1.653-1.922,2.883-1.922c2.076,0,2.998,1.422,2.998,4.382v12.185
		c0,2.96-0.961,4.42-2.998,4.42c-1.345,0-2.229-0.653-2.883-2.114C18.48,30.639,16.711,31.445,14.636,31.445z M15.636,25.641
		c2.229,0,3.882-1.96,3.882-4.958c0-2.96-1.691-4.843-3.882-4.843s-3.92,1.845-3.92,4.843
		C11.715,23.758,13.406,25.641,15.636,25.641z"/>
	<path fill="#808285" d="M35.124,31.253c-2.152,0-3.152-1.46-3.152-4.42V9.421c-0.192,0-0.384,0-0.576,0c-2.729,0-4.19-1-4.19-2.883
		c0-1.96,1.461-2.883,4.42-2.883h3.113c2.614,0,3.537,1.345,3.537,4.421v18.757C38.276,29.793,37.276,31.253,35.124,31.253z"/>
	<path fill="#808285" d="M60.838,28.101c0,1.961-1.46,2.883-4.42,2.883H45.387c-2.498,0-3.728-0.922-3.728-2.883
		c0-1.537,1.883-3.344,4.958-6.726c4.382-4.844,6.919-7.918,6.919-10.07c0-1.576-1.038-2.614-2.345-2.614
		c-1.191,0-2.268,0.923-2.959,2.807c-0.769,2.113-1.383,3.151-3.037,3.151c-1.806,0-3.075-1.269-3.075-3.19
		c0-1.422,0.692-3.497,1.922-5.035c1.845-2.306,4.42-3.536,7.341-3.536c5.343,0,8.764,3.536,8.764,8.11
		c0,4.382-3.498,8.302-9.456,14.222h5.728C59.378,25.219,60.838,26.141,60.838,28.101z"/>
	<path fill="#808285" d="M65.259,9.383c-2.729,0-4.189-0.5-4.189-2.768c0-1.885,1.23-2.96,3.729-2.96h10.224
		c3.037,0,4.536,1.153,4.536,3.421c0,0.5-0.192,1.384-0.615,2.307L69.91,28.87c-0.922,1.96-1.96,2.921-3.267,2.921
		c-1.845,0-3.229-1.307-3.229-3.036c0-0.808,0.346-1.691,0.846-2.729l8.072-16.643H65.259z"/>
</g>
<g>
	<path fill="#EF4823" d="M14.636,31.445c-4.958,0-9.187-4.343-9.187-10.686c0-6.15,4.267-10.724,9.417-10.724
		c2.076,0,3.613,0.691,4.843,2.152c0.692-1.229,1.653-1.922,2.883-1.922c2.076,0,2.998,1.422,2.998,4.382v12.185
		c0,2.96-0.961,4.42-2.998,4.42c-1.345,0-2.229-0.653-2.883-2.114C18.48,30.639,16.711,31.445,14.636,31.445z M15.636,25.641
		c2.229,0,3.882-1.96,3.882-4.958c0-2.96-1.691-4.843-3.882-4.843s-3.92,1.845-3.92,4.843
		C11.715,23.758,13.406,25.641,15.636,25.641z"/>
</g>
</svg>
